# xmcd
#
# Track frame offsets:
#	150
#	26132
#	42867
# Disc length: 837 seconds
# Revision: 1
# Processed by: cddbd v1.5.2PL0 Copyright (c) Steve Scherf et al.
#
# Submitted via: libkcddb 0.31
#
DISCID=1e034303
DTITLE=Indochine - La Chevauchée des Champs de Blé - La Bûddha Affaire
DYEAR=1988
DGENRE=Rock
TTITLE0=La Chevauchée des Champs de Blé - Version Longue
TTITLE1=La Bûddha Affaire - Version Longue
TTITLE2=La Chevauchée des Champs de Blé - Version Courte
EXTD=
EXTT0=
EXTT1=
EXTT2=
PLAYORDER=
